<svg version="1.1" id="Layer_1" xmlns:x="ns_extend;" xmlns:i="ns_ai;" xmlns:graph="ns_graphs;" xmlns="http://www.w3.org/2000/svg" xmlns:xlink="http://www.w3.org/1999/xlink" x="0px" y="0px" viewBox="0 0 250 47.2" style="enable-background:new 0 0 250 47.2;" xml:space="preserve">
 <style type="text/css">
  .st0{fill:#ED1B2D;}
 </style>
 <metadata>
  <sfw xmlns="ns_sfw;">
   <slices>
   </slices>
   <sliceSourceBounds bottomLeftOrigin="true" height="47.2" width="250" x="0" y="0">
   </sliceSourceBounds>
  </sfw>
 </metadata>
 <path class="st0" d="M97.9,9.1h6.9v2.4c0.7-0.6,3.1-2.9,7.6-2.9c5.2,0,9.3,3.8,9.3,9.9v15.7h-7.3V20.4c0-3.4-1.6-5.4-4.6-5.4
	c-2.9,0-4.6,1.9-4.6,5.4v13.7h-7.3V9.1 M167.4,21.6c0-7.2,5.8-13.1,13.3-13.1c7.6,0,13.3,5.9,13.3,13.1c0,7.2-5.8,13.1-13.3,13.1
	C173.2,34.7,167.4,28.8,167.4,21.6 M174.6,21.6c0,3.4,2.6,6.3,6.2,6.3c3.6,0,6.2-2.8,6.2-6.3c0-3.5-2.6-6.3-6.2-6.3
	C177.2,15.3,174.6,18.2,174.6,21.6 M67.2,21.6c0-7.2,5.8-13.1,13.3-13.1c7.6,0,13.3,5.9,13.3,13.1c0,7.2-5.8,13.1-13.3,13.1
	C73,34.7,67.2,28.8,67.2,21.6 M74.4,21.6c0,3.5,2.6,6.3,6.2,6.3c3.6,0,6.2-2.8,6.2-6.3c0-3.5-2.6-6.3-6.2-6.3
	C77,15.3,74.4,18.2,74.4,21.6 M229.5,6.4h7.4V0h-7.4V6.4z M229.5,34.1h7.4v-25h-7.4V34.1z M242.6,34.1h7.4V0h-7.4V34.1z M205.4,34.1
	h-7V0h7.1v11.1c0.4-0.3,2.7-2.6,7.7-2.6c6.6,0,12.1,5.6,12.1,13.1c0,7.4-5.8,13.1-12.1,13.1c-4.8,0-7.1-2.1-7.6-2.5L205.4,34.1
	 M217.7,21.6c0-3.5-2.7-6.2-6.2-6.2c-3.5,0-6.3,2.7-6.3,6.3c0,3.5,2.7,6.2,6.3,6.2C215,27.8,217.7,25.1,217.7,21.6 M24.1,34.1h8.6
	l7.7-9.9l4.8,4.9l-11,13.7h8.6l7-9.1l13.2,13.5h10.4L54.4,28l15-18.9h-8.6L49.7,23.3l-4.8-4.8L57.3,3h-8.6l-8.4,10.8l-4.6-4.7H25.5
	l10.3,10.4L24.1,34.1 M0,0v34.1h22.5v-6.4H7.6v-8.1h14.1v-6.2H7.6V6.4h14.8V0H0 M127.6,0v34.1h7.2V8.4h0.3l6.2,25.7h8.1l6.3-25.7
	h0.3v25.7h7.2V0h-11.7l-5.8,24.9h-0.3L139.6,0H127.6">
 </path>
</svg>